<svg width="14" height="12" viewBox="0 0 14 12" fill="none" xmlns="http://www.w3.org/2000/svg">
<path d="M13.6666 1.86588C13.1708 2.08337 12.6424 2.22754 12.0916 2.29754C12.6583 1.95921 13.0908 1.42755 13.2941 0.78672C12.7658 1.10172 12.1824 1.32421 11.5608 1.44838C11.0591 0.914219 10.3441 0.583389 9.56413 0.583389C8.05082 0.583389 6.8325 1.81171 6.8325 3.31753C6.8325 3.53419 6.85083 3.74252 6.89583 3.94085C4.62336 3.83002 2.61255 2.74087 1.26173 1.08172C1.0259 1.49088 0.887565 1.95921 0.887565 2.46337C0.887565 3.41002 1.37506 4.24918 2.10172 4.73501C1.66256 4.72668 1.23173 4.59918 0.866732 4.39835C0.866732 4.40668 0.866732 4.41751 0.866732 4.42835C0.866732 5.75667 1.81422 6.85999 3.05671 7.11415C2.83421 7.17498 2.59171 7.20415 2.34005 7.20415C2.16505 7.20415 1.98839 7.19415 1.82255 7.15748C2.17672 8.23997 3.18171 9.0358 4.37669 9.06163C3.4467 9.78912 2.26588 10.2274 0.987564 10.2274C0.7634 10.2274 0.548402 10.2174 0.333405 10.1899C1.54422 10.9708 2.97921 11.4166 4.52669 11.4166C9.55663 11.4166 12.3066 7.24998 12.3066 3.63836C12.3066 3.51752 12.3024 3.40086 12.2966 3.28503C12.8391 2.90003 13.2949 2.4192 13.6666 1.86588Z" fill="#1C2661"/>
</svg>
